# Blender 3.6.18
# www.blender.org
mtllib material_test.mtl
o Plane
v -5.000000 0.000000 5.000000
v 5.000000 0.000000 5.000000
v -5.000000 0.000000 -5.000000
v 5.000000 0.000000 -5.000000
vn -0.0000 1.0000 -0.0000
vt 1.000000 0.000000
vt 0.000000 1.000000
vt 0.000000 0.000000
vt 1.000000 1.000000
s 0
usemtl Floor
f 2/1/1 3/2/1 1/3/1
f 2/1/1 4/4/1 3/2/1
o Plane.001
v 0.566987 2.250000 0.500000
v 1.433013 1.750000 0.500000
v 0.566987 2.250000 -0.500000
v 1.433013 1.750000 -0.500000
vn 0.5000 0.8660 -0.0000
vt 1.000000 0.000000
vt 0.000000 1.000000
vt 0.000000 0.000000
vt 1.000000 1.000000
s 0
usemtl Light
f 6/5/2 7/6/2 5/7/2
f 6/5/2 8/8/2 7/6/2
o Plane.002
v -1.233253 1.183494 -0.045994
v -1.016747 1.616506 0.079006
v -0.983253 1.183494 -0.479006
v -0.766747 1.616506 -0.354006
vn -0.7500 0.5000 -0.4330
vt 1.000000 0.000000
vt 0.000000 1.000000
vt 0.000000 0.000000
vt 1.000000 1.000000
s 0
usemtl Light.001
f 10/9/3 11/10/3 9/11/3
f 10/9/3 12/12/3 11/10/3
